# xmcd CD database file
#
# Track frame offsets:
#	150
#	12535
#	23787
#	41306
#	57156
#	72174
#	85796
#	95028
#	109687
#	125116
#	137534
#	148566
#	162048
#	174941
#	188382
#	201426
#	214708
#	230671
#	240792
#
# Disc length: 3392 seconds
#
# Revision: 0
# Processed by: cddbd v1.5.1PL2 Copyright (c) Steve Scherf et al.
# Submitted via: CDex 1.51
#
DISCID=f90d3e13
DTITLE=Kitty Wells and Jean Stafford - Queens Of Country Music
DYEAR=1900
DGENRE=Country
TTITLE0=It Wasn't God Who Made Honky Tonk Angels - Wells and Stafford
TTITLE1=I Can't Help It If I'm Still In Love With You - Wells
TTITLE2=Sunshine Rain - Stafford
TTITLE3=I'll Get Over You - Wells
TTITLE4=You Waltzed Right Into My Heart - Stafford
TTITLE5=Making Believe - Wells
TTITLE6=Mockingbird Hill - Stafford
TTITLE7=If You Love Me, Let Me Know - Wells
TTITLE8=First, Best And Always - Stafford
TTITLE9=You And Me - Wells
TTITLE10=Walking After Midnight - Stafford
TTITLE11=Paper Roses - Wells
TTITLE12=Tassie's Got It All - Stafford
TTITLE13=Blue Eyes Crying In The Rain - Wells
TTITLE14=Could It Be You - Stafford
TTITLE15=Amigo's Guitar - Wells
TTITLE16=A Woman's Work Is Never Done - Stafford
TTITLE17=I Can't Stop Loving You - Wells
TTITLE18=Welcome To My World - Stafford
EXTD=
EXTT0=
EXTT1=
EXTT2=
EXTT3=
EXTT4=
EXTT5=
EXTT6=
EXTT7=
EXTT8=
EXTT9=
EXTT10=
EXTT11=
EXTT12=
EXTT13=
EXTT14=
EXTT15=
EXTT16=
EXTT17=
EXTT18=
PLAYORDER=
